PathFileType	4	(X/Y/Z)	/Users/itak/Documents/Research/Walk-IL/dataset/trc/00083_00006.trc
DataRate	CameraRate	NumFrames	NumMarkers	Units	OrigDataRate	OrigDataStartFrame	OrigNumFrames
100.000000	100.000000	4	53	mm	100.000000	63	507
Frame#	Time	RPSI			LPSI			L3			STRN			T10			C7			CLAV			RBAK			LBAK			LSHO			LUPA			LAEL			LAOL			LWTS			LWPS			LFRA			LIFD			LHPS			LHTS			RSHO			RUPA			RAEL			RAOL			RWTS			RWPS			RFRA			RIFD			RHTS			RHPS			RBHD			LFHD			RFHD			LBHD			LHIP			RHIP			RASI			LASI			LKNE			LTHI			LANK			LTIP			LTOE			LMT1			LMT5			LHEE			RKNE			RTHI			RANK			RTIP			RTOE			RMT1			RMT5			RHEE			
		X1	Y1	Z1	X2	Y2	Z2	X3	Y3	Z3	X4	Y4	Z4	X5	Y5	Z5	X6	Y6	Z6	X7	Y7	Z7	X8	Y8	Z8	X9	Y9	Z9	X10	Y10	Z10	X11	Y11	Z11	X12	Y12	Z12	X13	Y13	Z13	X14	Y14	Z14	X15	Y15	Z15	X16	Y16	Z16	X17	Y17	Z17	X18	Y18	Z18	X19	Y19	Z19	X20	Y20	Z20	X21	Y21	Z21	X22	Y22	Z22	X23	Y23	Z23	X24	Y24	Z24	X25	Y25	Z25	X26	Y26	Z26	X27	Y27	Z27	X28	Y28	Z28	X29	Y29	Z29	X30	Y30	Z30	X31	Y31	Z31	X32	Y32	Z32	X33	Y33	Z33	X34	Y34	Z34	X35	Y35	Z35	X36	Y36	Z36	X37	Y37	Z37	X38	Y38	Z38	X39	Y39	Z39	X40	Y40	Z40	X41	Y41	Z41	X42	Y42	Z42	X43	Y43	Z43	X44	Y44	Z44	X45	Y45	Z45	X46	Y46	Z46	X47	Y47	Z47	X48	Y48	Z48	X49	Y49	Z49	X50	Y50	Z50	X51	Y51	Z51	X52	Y52	Z52	X53	Y53	Z53	

64	0.63	-1380.88916015625	1033.68212890625	431.1031799316406	-1384.502563476562	1024.694580078125	255.0478057861328	-1378.99609375	1082.990966796875	335.7406616210938	-1134.043212890625	1284.471313476562	346.4294738769531	-1400.678466796875	1217.612670898438	331.7383117675781	-1344.237182617188	1485.5654296875	334.3942565917969	-1164.5810546875	1399.191162109375	344.4266967773438	-1408.515747070312	1346.0146484375	405.3252258300781	-1360.315795898438	1448.704833984375	230.86865234375	-1252.309326171875	1454.206176757812	164.3741912841797	-1259.243408203125	1326.439331054688	86.23287963867188	-1229.76123046875	1111.323120117188	71.25663757324219	-1301.182373046875	1095.117431640625	149.1419982910156	-1132.25390625	878.4209594726562	147.5635681152344	-1185.285522460938	861.9481811523438	83.98387908935547	-1203.73486328125	1002.96142578125	68.00741577148438	-1112.263305664062	696.2688598632812	176.0839996337891	-1148.478393554688	783.8629150390625	94.10590362548828	-1104.268432617188	797.4951171875	147.8301391601562	-1288.0849609375	1446.402221679688	512.8004150390625	-1300.347412109375	1375.308959960938	574.6958618164062	-1319.897583007812	1107.30029296875	592.4752197265625	-1298.279296875	1089.55078125	495.47021484375	-1166.849853515625	861.046630859375	554.8983764648438	-1239.386840820312	842.973876953125	601.7150268554688	-1304.723022460938	1028.084350585938	597.2566528320312	-1157.751831054688	672.7918701171875	532.9974365234375	-1141.34375	760.6900024414062	552.0845336914062	-1199.459594726562	755.2478637695312	603.0579833984375	-1301.641479492188	1668.043823242188	271.1112060546875	-1146.052124023438	1695.432861328125	418.5639953613281	-1127.32373046875	1700.32763671875	294.3123779296875	-1313.221435546875	1655.444702148438	408.4923706054688	-1277.117065429688	958.8303833007812	170.4309844970703	-1312.168334960938	962.3369140625	507.8912963867188	-1187.989990234375	980.7841186523438	488.917236328125	-1163.154174804688	971.0410766601562	220.5982971191406	-1211.492065429688	498.076904296875	241.0582122802734	-1239.712036132812	637.4896240234375	200.1515808105469	-1362.211669921875	52.72383880615234	246.4129791259766	-1294.13232421875	261.0371398925781	230.0425415039062	-1155.32080078125	45.82558822631836	243.1241455078125	-1203.586547851562	43.7441520690918	299.3902587890625	-1261.019287109375	45.18304061889648	203.5240631103516	-1412.112548828125	52.48807907104492	323.2732238769531	-1219.5244140625	520.5799560546875	497.3284912109375	-1224.655517578125	791.1746215820312	522.5526733398438	-1342.194702148438	46.66132736206055	506.1928100585938	-1244.857177734375	397.3120422363281	506.042724609375	-1123.389404296875	43.75202560424805	474.5762939453125	-1184.124145507812	49.57781600952148	432.8379211425781	-1218.683959960938	48.84852981567383	524.6436767578125	-1386.70654296875	48.43868255615234	446.7126770019531	
65	0.64	-1380.831665039062	1033.658325195312	431.062744140625	-1384.381103515625	1024.696655273438	255.0732727050781	-1378.904663085938	1083.009155273438	335.7562866210938	-1133.90576171875	1284.463256835938	346.529296875	-1400.584106445312	1217.63916015625	331.7200927734375	-1344.1416015625	1485.60693359375	334.4625549316406	-1164.422119140625	1399.18408203125	344.4988403320312	-1408.477294921875	1346.026123046875	405.2974548339844	-1360.171264648438	1448.733520507812	230.88671875	-1252.08154296875	1454.209838867188	164.4514923095703	-1259.1435546875	1326.412719726562	86.30464935302734	-1229.925415039062	1111.217529296875	71.49178314208984	-1301.450073242188	1095.186401367188	149.3041381835938	-1132.929077148438	878.1384887695312	148.0434722900391	-1185.863159179688	861.7567138671875	84.41658020019531	-1204.078979492188	1002.815490722656	68.33296203613281	-1113.295654296875	695.9824829101562	176.705322265625	-1149.252685546875	783.6234130859375	94.6295166015625	-1105.148803710938	797.2288208007812	148.4228973388672	-1288.05224609375	1446.40283203125	512.8264770507812	-1300.373291015625	1375.323364257812	574.7257080078125	-1320.074951171875	1107.333740234375	592.4869995117188	-1298.532104492188	1089.55419921875	495.4549255371094	-1167.536376953125	860.7780151367188	555.1848754882812	-1240.196533203125	842.8623657226562	601.9202270507812	-1305.118041992188	1028.178588867188	597.3668212890625	-1158.867431640625	672.4915771484375	533.3895263671875	-1142.338012695312	760.310546875	552.4168701171875	-1200.457153320312	755.1244506835938	603.4055786132812	-1301.78515625	1667.969360351562	271.2958984375	-1146.182373046875	1695.520263671875	418.7467651367188	-1127.489624023438	1700.445068359375	294.4746398925781	-1313.341918945312	1655.36328125	408.74169921875	-1277.000610351562	958.823974609375	170.4549407958984	-1312.12890625	962.3286743164062	507.8934631347656	-1187.925170898438	980.7763061523438	488.9387512207031	-1163.0625	971.0391845703125	220.6120147705078	-1211.456909179688	498.0601501464844	241.0351104736328	-1239.698364257812	637.4959716796875	200.1261749267578	-1362.21044921875	52.72090530395508	246.409423828125	-1294.104858398438	261.0278015136719	230.0416412353516	-1155.31884765625	45.82503509521484	243.1239624023438	-1203.585693359375	43.74301147460938	299.3902587890625	-1261.020629882812	45.1804084777832	203.5196990966797	-1412.112915039062	52.48757553100586	323.2740783691406	-1219.494018554688	520.56005859375	497.3409118652344	-1224.632446289062	791.1420288085938	522.5817260742188	-1342.19580078125	46.67409515380859	506.1778259277344	-1244.7978515625	397.2709655761719	506.0253295898438	-1123.3828125	43.75735092163086	474.5778503417969	-1184.1259765625	49.57448196411133	432.8363647460938	-1218.68505859375	48.84245681762695	524.6436157226562	-1386.690063476562	48.41884231567383	446.6821594238281	
66	0.65	-1380.783203125	1033.640014648438	431.0315551757812	-1384.263305664062	1024.696899414062	255.1001892089844	-1378.814208984375	1083.03076171875	335.7742309570312	-1133.779907226562	1284.457641601562	346.6187744140625	-1400.49609375	1217.671997070312	331.6988220214844	-1344.028564453125	1485.645629882812	334.5106201171875	-1164.257080078125	1399.177368164062	344.5701904296875	-1408.431274414062	1346.041870117188	405.2655944824219	-1360.026245117188	1448.764404296875	230.9038391113281	-1251.858154296875	1454.215698242188	164.5229187011719	-1259.037109375	1326.393432617188	86.37226867675781	-1230.095703125	1111.115234375	71.71959686279297	-1301.721801757812	1095.260498046875	149.4583282470703	-1133.631103515625	877.8500366210938	148.5082855224609	-1186.471557617188	861.5673217773438	84.82219696044922	-1204.438232421875	1002.669250488281	68.64334106445312	-1114.415283203125	695.6587524414062	177.2650451660156	-1150.059814453125	783.3743896484375	95.12335205078125	-1106.084350585938	796.9512939453125	148.9843444824219	-1288.007080078125	1446.410034179688	512.8511352539062	-1300.388427734375	1375.346313476562	574.7525634765625	-1320.271850585938	1107.381591796875	592.5227661132812	-1298.763305664062	1089.565307617188	495.4564208984375	-1168.266845703125	860.5194702148438	555.4843139648438	-1241.025756835938	842.7570190429688	602.1639404296875	-1305.52001953125	1028.288818359375	597.4878540039062	-1159.960327148438	672.2017822265625	533.8089599609375	-1143.356323242188	759.9346313476562	552.7776489257812	-1201.473510742188	754.9942016601562	603.74951171875	-1301.945922851562	1667.892456054688	271.4845886230469	-1146.331420898438	1695.612426757812	418.9390869140625	-1127.678100585938	1700.579345703125	294.6443481445312	-1313.464233398438	1655.272705078125	408.979736328125	-1276.883666992188	958.8172607421875	170.48046875	-1312.093505859375	962.3245849609375	507.8985900878906	-1187.868041992188	980.7704467773438	488.9614868164062	-1162.980590820312	971.0347900390625	220.6266479492188	-1211.414428710938	498.0446472167969	241.0167388916016	-1239.6767578125	637.5001220703125	200.1041107177734	-1362.206298828125	52.71873474121094	246.4095306396484	-1294.069580078125	261.0157470703125	230.0443878173828	-1155.312133789062	45.82019424438477	243.1262817382812	-1203.584594726562	43.74129104614258	299.3907165527344	-1261.020385742188	45.17752838134766	203.5176544189453	-1412.113403320312	52.48674392700195	323.2755126953125	-1219.46923828125	520.5433349609375	497.3511962890625	-1224.643310546875	791.121337890625	522.6198120117188	-1342.196044921875	46.68120193481445	506.1700134277344	-1244.743041992188	397.220947265625	505.9971313476562	-1123.375	43.76245498657227	474.5800170898438	-1184.128662109375	49.57072067260742	432.8353576660156	-1218.686279296875	48.83822250366211	524.6436157226562	-1386.67724609375	48.40636825561523	446.6636047363281	
67	0.66	-1380.743041992188	1033.629272460938	431.0082397460938	-1384.147705078125	1024.696166992188	255.12744140625	-1378.722534179688	1083.053466796875	335.7940979003906	-1133.667602539062	1284.454711914062	346.698974609375	-1400.413330078125	1217.708129882812	331.6744995117188	-1343.906860351562	1485.681396484375	334.5411987304688	-1164.089965820312	1399.17138671875	344.6411437988281	-1408.375244140625	1346.058837890625	405.2275390625	-1359.8837890625	1448.795288085938	230.9200897216797	-1251.645629882812	1454.223022460938	164.5869293212891	-1258.928466796875	1326.38037109375	86.43496704101562	-1230.268310546875	1111.016235351562	71.9417724609375	-1301.992431640625	1095.339111328125	149.6105194091797	-1134.353393554688	877.5608520507812	148.9579772949219	-1187.11083984375	861.3856201171875	85.19646453857422	-1204.809814453125	1002.524108886719	68.93801879882812	-1115.626708984375	695.3029174804688	177.7608489990234	-1150.8935546875	783.1168212890625	95.58568572998047	-1107.073608398438	796.661376953125	149.5178527832031	-1287.952758789062	1446.422241210938	512.8755493164062	-1300.395385742188	1375.374755859375	574.7772216796875	-1320.491333007812	1107.441284179688	592.5792846679688	-1298.971069335938	1089.580932617188	495.4736938476562	-1169.035766601562	860.26025390625	555.7857055664062	-1241.8642578125	842.6648559570312	602.4345703125	-1305.91650390625	1028.408447265625	597.6007080078125	-1161.05419921875	671.915771484375	534.26220703125	-1144.382568359375	759.5554809570312	553.1691284179688	-1202.50244140625	754.8380126953125	604.0870361328125	-1302.124267578125	1667.816040039062	271.6764526367188	-1146.49951171875	1695.706787109375	419.1391296386719	-1127.890502929688	1700.733276367188	294.8243408203125	-1313.581909179688	1655.170043945312	409.1940612792969	-1276.766235351562	958.8104858398438	170.5067138671875	-1312.062377929688	962.326416015625	507.9064331054688	-1187.817993164062	980.76708984375	488.9854736328125	-1162.910522460938	971.02734375	220.6399230957031	-1211.367309570312	498.0308532714844	241.0062713623047	-1239.648315429688	637.5025634765625	200.0865631103516	-1362.200073242188	52.71778106689453	246.4132843017578	-1294.030395507812	261.0025024414062	230.0504760742188	-1155.302368164062	45.81234741210938	243.1304626464844	-1203.583129882812	43.73896408081055	299.3919067382812	-1261.0185546875	45.17487335205078	203.5188751220703	-1412.113891601562	52.48563385009766	323.2774963378906	-1219.449584960938	520.5306396484375	497.3598937988281	-1224.7001953125	791.1228637695312	522.6641235351562	-1342.195678710938	46.68305206298828	506.168701171875	-1244.693359375	397.1622619628906	505.9580688476562	-1123.366821289062	43.76731491088867	474.5826110839844	-1184.132690429688	49.56695938110352	432.8343811035156	-1218.687866210938	48.83647537231445	524.643798828125	-1386.673095703125	48.41096878051758	446.6659545898438	
